<mxfile host="65bd71144e">
    <diagram id="cognito-web-pattern" name="Webアプリケーションパターン">
        <mxGraphModel dx="657" dy="580" grid="0" gridSize="10" guides="1" tooltips="1" connect="1" arrows="1" fold="1" page="1" pageScale="1" pageWidth="850" pageHeight="1100" math="0" shadow="0">
            <root>
                <mxCell id="0"/>
                <mxCell id="1" parent="0"/>
                <mxCell id="2" value="AWS Cloud" style="points=[[0,0],[0.25,0],[0.5,0],[0.75,0],[1,0],[1,0.25],[1,0.5],[1,0.75],[1,1],[0.75,1],[0.5,1],[0.25,1],[0,1],[0,0.75],[0,0.5],[0,0.25]];outlineConnect=0;gradientColor=none;html=1;whiteSpace=wrap;fontSize=12;fontStyle=0;container=1;pointerEvents=0;collapsible=0;recursiveResize=0;shape=mxgraph.aws4.group;grIcon=mxgraph.aws4.group_aws_cloud_alt;strokeColor=#232F3E;fillColor=none;verticalAlign=top;align=left;spacingLeft=30;fontColor=#232F3E;dashed=0;" parent="1" vertex="1">
                    <mxGeometry x="160" y="131" width="600" height="483" as="geometry"/>
                </mxCell>
                <mxCell id="20" value="Cognito" style="sketch=0;points=[[0,0,0],[0.25,0,0],[0.5,0,0],[0.75,0,0],[1,0,0],[0,1,0],[0.25,1,0],[0.5,1,0],[0.75,1,0],[1,1,0],[0,0.25,0],[0,0.5,0],[0,0.75,0],[1,0.25,0],[1,0.5,0],[1,0.75,0]];outlineConnect=0;fontColor=#232F3E;gradientColor=#F54749;gradientDirection=north;fillColor=#C7131F;strokeColor=#ffffff;dashed=0;verticalLabelPosition=bottom;verticalAlign=top;align=center;html=1;fontSize=12;fontStyle=0;aspect=fixed;shape=mxgraph.aws4.resourceIcon;resIcon=mxgraph.aws4.cognito;" parent="2" vertex="1">
                    <mxGeometry x="324" y="189" width="78" height="78" as="geometry"/>
                </mxCell>
                <mxCell id="21" value="API Gateway" style="sketch=0;points=[[0,0,0],[0.25,0,0],[0.5,0,0],[0.75,0,0],[1,0,0],[0,1,0],[0.25,1,0],[0.5,1,0],[0.75,1,0],[1,1,0],[0,0.25,0],[0,0.5,0],[0,0.75,0],[1,0.25,0],[1,0.5,0],[1,0.75,0]];outlineConnect=0;fontColor=#232F3E;gradientColor=#945DF2;gradientDirection=north;fillColor=#5A30B5;strokeColor=#ffffff;dashed=0;verticalLabelPosition=bottom;verticalAlign=top;align=center;html=1;fontSize=12;fontStyle=0;aspect=fixed;shape=mxgraph.aws4.resourceIcon;resIcon=mxgraph.aws4.api_gateway;" parent="2" vertex="1">
                    <mxGeometry x="197" y="333" width="78" height="78" as="geometry"/>
                </mxCell>
                <mxCell id="22" value="Lambda Function" style="sketch=0;points=[[0,0,0],[0.25,0,0],[0.5,0,0],[0.75,0,0],[1,0,0],[0,1,0],[0.25,1,0],[0.5,1,0],[0.75,1,0],[1,1,0],[0,0.25,0],[0,0.5,0],[0,0.75,0],[1,0.25,0],[1,0.5,0],[1,0.75,0]];outlineConnect=0;fontColor=#232F3E;gradientColor=#F78E04;gradientDirection=north;fillColor=#D05C17;strokeColor=#ffffff;dashed=0;verticalLabelPosition=bottom;verticalAlign=top;align=center;html=1;fontSize=12;fontStyle=0;aspect=fixed;shape=mxgraph.aws4.resourceIcon;resIcon=mxgraph.aws4.lambda;" parent="2" vertex="1">
                    <mxGeometry x="332" y="333" width="78" height="78" as="geometry"/>
                </mxCell>
                <mxCell id="23" value="DynamoDB" style="sketch=0;points=[[0,0,0],[0.25,0,0],[0.5,0,0],[0.75,0,0],[1,0,0],[0,1,0],[0.25,1,0],[0.5,1,0],[0.75,1,0],[1,1,0],[0,0.25,0],[0,0.5,0],[0,0.75,0],[1,0.25,0],[1,0.5,0],[1,0.75,0]];outlineConnect=0;fontColor=#232F3E;gradientColor=#4D72F3;gradientDirection=north;fillColor=#3334B9;strokeColor=#ffffff;dashed=0;verticalLabelPosition=bottom;verticalAlign=top;align=center;html=1;fontSize=12;fontStyle=0;aspect=fixed;shape=mxgraph.aws4.resourceIcon;resIcon=mxgraph.aws4.dynamodb;" parent="2" vertex="1">
                    <mxGeometry x="484" y="333" width="78" height="78" as="geometry"/>
                </mxCell>
                <mxCell id="24" value="CloudFront" style="sketch=0;points=[[0,0,0],[0.25,0,0],[0.5,0,0],[0.75,0,0],[1,0,0],[0,1,0],[0.25,1,0],[0.5,1,0],[0.75,1,0],[1,1,0],[0,0.25,0],[0,0.5,0],[0,0.75,0],[1,0.25,0],[1,0.5,0],[1,0.75,0]];outlineConnect=0;fontColor=#232F3E;gradientColor=#945DF2;gradientDirection=north;fillColor=#5A30B5;strokeColor=#ffffff;dashed=0;verticalLabelPosition=bottom;verticalAlign=top;align=center;html=1;fontSize=12;fontStyle=0;aspect=fixed;shape=mxgraph.aws4.resourceIcon;resIcon=mxgraph.aws4.cloudfront;" parent="2" vertex="1">
                    <mxGeometry x="79" y="59" width="78" height="78" as="geometry"/>
                </mxCell>
                <mxCell id="25" value="S3 Bucket" style="sketch=0;points=[[0,0,0],[0.25,0,0],[0.5,0,0],[0.75,0,0],[1,0,0],[0,1,0],[0.25,1,0],[0.5,1,0],[0.75,1,0],[1,1,0],[0,0.25,0],[0,0.5,0],[0,0.75,0],[1,0.25,0],[1,0.5,0],[1,0.75,0]];outlineConnect=0;fontColor=#232F3E;gradientColor=#60A337;gradientDirection=north;fillColor=#277116;strokeColor=#ffffff;dashed=0;verticalLabelPosition=bottom;verticalAlign=top;align=center;html=1;fontSize=12;fontStyle=0;aspect=fixed;shape=mxgraph.aws4.resourceIcon;resIcon=mxgraph.aws4.s3;" parent="2" vertex="1">
                    <mxGeometry x="302" y="59" width="78" height="78" as="geometry"/>
                </mxCell>
                <mxCell id="26" value="" style="endArrow=classic;html=1;rounded=0;exitX=1;exitY=0.5;exitDx=0;exitDy=0;exitPerimeter=0;" parent="2" source="24" target="25" edge="1">
                    <mxGeometry width="50" height="50" relative="1" as="geometry">
                        <mxPoint x="369" y="289" as="sourcePoint"/>
                        <mxPoint x="419" y="239" as="targetPoint"/>
                    </mxGeometry>
                </mxCell>
                <mxCell id="35" value="静的ウェブサイト" style="edgeLabel;html=1;align=center;verticalAlign=middle;resizable=0;points=[];" parent="26" vertex="1" connectable="0">
                    <mxGeometry x="-0.1616" y="-3" relative="1" as="geometry">
                        <mxPoint as="offset"/>
                    </mxGeometry>
                </mxCell>
                <mxCell id="27" value="" style="endArrow=classic;html=1;rounded=0;entryX=0;entryY=0.5;entryDx=0;entryDy=0;entryPerimeter=0;" parent="2" source="21" target="22" edge="1">
                    <mxGeometry width="50" height="50" relative="1" as="geometry">
                        <mxPoint x="344" y="419" as="sourcePoint"/>
                        <mxPoint x="394" y="369" as="targetPoint"/>
                    </mxGeometry>
                </mxCell>
                <mxCell id="28" value="" style="endArrow=classic;html=1;rounded=0;entryX=0;entryY=0.5;entryDx=0;entryDy=0;entryPerimeter=0;" parent="2" source="22" target="23" edge="1">
                    <mxGeometry width="50" height="50" relative="1" as="geometry">
                        <mxPoint x="439" y="372" as="sourcePoint"/>
                        <mxPoint x="394" y="369" as="targetPoint"/>
                    </mxGeometry>
                </mxCell>
                <mxCell id="29" value="ユーザー" style="sketch=0;outlineConnect=0;fontColor=#232F3E;gradientColor=none;fillColor=#232F3E;strokeColor=none;dashed=0;verticalLabelPosition=bottom;verticalAlign=top;align=center;html=1;fontSize=12;fontStyle=0;aspect=fixed;pointerEvents=1;shape=mxgraph.aws4.user;" parent="2" vertex="1">
                    <mxGeometry x="-124" y="82" width="78" height="78" as="geometry"/>
                </mxCell>
                <mxCell id="30" value="" style="endArrow=classic;html=1;rounded=0;exitX=1;exitY=0.5;exitDx=0;exitDy=0;exitPerimeter=0;entryX=0;entryY=0.5;entryDx=0;entryDy=0;entryPerimeter=0;" parent="2" source="29" target="24" edge="1">
                    <mxGeometry width="50" height="50" relative="1" as="geometry">
                        <mxPoint x="239" y="208" as="sourcePoint"/>
                        <mxPoint x="289" y="158" as="targetPoint"/>
                    </mxGeometry>
                </mxCell>
                <mxCell id="33" value="" style="endArrow=classic;html=1;rounded=0;entryX=0;entryY=0.5;entryDx=0;entryDy=0;entryPerimeter=0;" parent="2" source="29" target="21" edge="1">
                    <mxGeometry width="50" height="50" relative="1" as="geometry">
                        <mxPoint x="369" y="238" as="sourcePoint"/>
                        <mxPoint x="419" y="188" as="targetPoint"/>
                    </mxGeometry>
                </mxCell>
                <mxCell id="34" value="AuthorizationHeader" style="edgeLabel;html=1;align=center;verticalAlign=middle;resizable=0;points=[];" parent="33" vertex="1" connectable="0">
                    <mxGeometry x="-0.165" y="1" relative="1" as="geometry">
                        <mxPoint as="offset"/>
                    </mxGeometry>
                </mxCell>
                <mxCell id="41" value="" style="shape=image;verticalLabelPosition=bottom;labelBackgroundColor=default;verticalAlign=top;aspect=fixed;imageAspect=0;image=data:image/png,iVBORw0KGgoAAAANSUhEUgAAAHsAAAB5CAYAAAAZD150AAAAAXNSR0IArs4c6QAAAARnQU1BAACxjwv8YQUAAAAJcEhZcwAADsMAAA7DAcdvqGQAAB6sSURBVHhe7Z15lF1Vne8/v33OHerWrbo1pqpSmclEBswAERJmBHwKPBWHpTbaattO3U7Lt1z6nLXthe173fazu1WetqjdD0WxFe0nD1GQADIEgiFAEkgIkKlSSaVSc9179u/9sc+tO+Tem5uQCknqfta6K6l99hnu+Z7927/92799rqiqUmNKYIoLapy51MSeQtTEnkLUxJ5C1MSeQtTEnkLUxJ5C1MSeQtTEnkK8JLHTCiMWghMQgwvCY6VPwLFqlEaOJ1y6Lw3r+y0vjCuqkPCEeXFYmhA6IoInxXuUJlDoSStPDMP2UWU4UERgZlRY1yh0Rqs8UI2qOGaxt44oP9pv2Z9WxqwrMwJ1BpJGWJUUXt1saPCK9yxkIIDf9FkeHVQGrTJiwYZXEjPQHhH+rN2wsO40Fzx9kMyGGXjBCKW+ie34S8z8bxcXTwrHJPahjPIPuy3PjyltEbiyydDsCztHlY3Dyt5xd6g6gb/sNCyrL91LPDFk+c5ey0h45s6osCIhzI4LfRnlzkOW3jTMigkfnW5o8kvdptMH3f89eOZ9QAYJG8gEIrBsPTSuLdpw4jkmsX9x0HJHnyUucONcn0ieBlbhjwOWX/VZetLOGbi6yXBtqyFrjccVbj9gueOQxQLTInBNs+H8BoPJO1Za4ZPPBYxa5epmw39tKf3QnE7YRxdhRrYWFwOgjVchy38DJdv+iaPquzhi4dkRZ7qvaTEFQhOa8rWNhs/M9LmgwRA1cMchy3f3WvanYX8avrvXCR01cEGDq7u2sVBogIjANS3CWHjOkeLWcDpghwv/Puu7YKOFZVkO34nd/4Pi0hNO1WIPBMqYQsQI5zWUfwITBt7dYXhts0eLL2wYtPyoJ+BHPQEbBi0tvvDaZo93dxgSFc5+XlKIGGFcYfBEuPsnE02jj52Pju+bKDKpC9G2qwuqZREU3fllqN7IHhcVbnchwwGkLcQN+FJebEJjdHWT8IZWQ3dM2DSsbBpWumOu7OomOarB8kWIGxi3MBQUbz21yWz/JDL0BHb7JwrKZfaNqNQVlGXxxp5Fd36quPiEUrXY4woZBb94QxmMwJy4FJj7SFhWbLbL4ePOGfp9pwfpXmTXzWgAXs/P0KHNuW2Js6H7w6iWvouy+9topr+4+IRRtdhG3Kfa7nPMwi8OBOwcVdoiQlvEee2/OGAnhmxHw+ad97RALcHmG/DG+5AAyIygT7+10Dx3fYwg1kjJ51cPodveCVrlDTpGqha7TlzLrCbCpcAdfZZHBpWUL7ym2fCaZkPKFx4ZdE5aFYchre6cp81Qe2QHpue3eQUGGdqEDvxxokSiHZi5/4SW6cik7xfo0OPFxSeE6sX2BF9gJNCJ4Ec5tgwrv+qzGIELGg0XNQoXNQoXhJ73rw5atgxXPohVdy5f3LlPeWya8QcuQG0GaxVUUWvRDMhjV0Pm8ERV0/J6xvxkyZGWALLlHZPSuqsWOx62bAvsGCsUSkOTGyj0ppV/3BMQKJwVN7ym2XnU4wqvaRbOihsChX/cE9CbVgJ1+xZLv2PMlUfEnftUR0d3ERk9CICo+0KCIFYIggHs7u/kKpsY8eV/BEqHGe34E9jeW4qLXzJVB1UscNOegIcHlQtThje0GoYCZdjCqHXj7/4A7jqk7Ak9qraIkFEIwlN44qxDb9gXdEWFK5qElOdCpHEjJAzUe8JtByzr+y3nJYX3dnnVP5UvI/rUx5Dn/iFsnsapbkAFhAisfRrq5oa1LXbj5ZjBe45o4QpobB5m5ePgJQs3vgSqEtvihj+/PGC597AlYWBJQtg6mhNO8lpnRMAT8MU9uyLuKbe4luwegFz/n79vW0RYVCdsHrIMW7go5SJoCe8YzNDLhGYGCX43Az/T7y7WmFB4UCPo9HdhFt+Uqz++BzacjdgyHviMT8PsvykuPW4qip1W2D2ubBuBvWnlyWGlZ1yxOCHrPaEjAm0+7EnDzjHFAFc1OXGi4j5eOC4PUMatM+nDAfy/MGw6OyZ0RaE37WbUhgIl4xoF06ISzqbBgjpherRwOPeyoxmQ3FBKn/s2uvmDGC/b57rhhHoKIsiqe6EpFwe3z74fs7f0RIj1mzCrtkGkrXjTcVFSbKvKzjG4b0DZNaZsH1WCMDo2Fs45L6oTLksZpkVcS/51n+WhAWVto3DDNO+ogqQVftAT8MBhZU2D4bUtQlqhZxx+32/ZMqJExJn3YessxNy4MCMmrGsQZsfAHCW4czKwD78DWfFNJNI4URb84RzM0Cayl6firDoC2nIxsuru0J6B6jj6x5mYoOcIcw5A01Ww9I7i0uPiCMs4GLgpzB/0WH5/yLJjVJkfF25o93hfp8cFDQYvdNTWNAgzY8L2MWXzsNLowaUpQzWTVL64uo0ebB62bB9189hrGgSL6wYuaDC8r9PjhnaP+XHhuVHl94fctf1ov33Zw6j24GPozlvQzV8o3LDkG2DBBqGjZoEg7A/77kd3/3CiqkgUnf3Fgt3z0f7fo2MvFhcfFwViPz+mfGuvZf1h5YUxZXFC+Hi3x3s6PdY1OnN6aco5WXvGlYNp54w9MKAMWbi21TAzlguFajiB8sKY+4zYXN8suCnMa1sNQxYeGLAFx3QPgzvnukbhPZ0eH+/2WJwQXhhT1h921/p80cjg5KHoH2/ABAFm+00w+OzEFq/tMrTjTYh1rULD4YYqiAbI9kJxvc53ofWrC8qyiKZh08WgY8WbjpkJsZ8fU/59v+WpYcUT+Fi3x4e7PBbUCS2+a4kAM2JCXJxwvzxo2T6qbB1W5seEBXnh0UDh7n7lEzsy/O2L7vOJHRnu7ndOGqEjtyAuzI8JW4eVHWNwe5+b5YqLOxehFWjxXZ/94S6Pj3V7eAJPDbtrfjkE1+d/CoefduPp8SF0w18VbJdFX0IlCtY9/EoofKDo8A7Y9plcZRODeV939r4UY8+hfb8pLj1mDMBg4CJeW0eUjqjwd3N8liaEWOhM5uMLXN/mxsobhpRf9ykRA2sbXX+aZf2A5Yc9ASMWRsPPiIUf9gSsH8gFDGbEhLWNQsS4YMsjg5ZA3TmKuwMJs1iWJtw1dkSFrSPKHX2WwZM4WaJjfXDfOzBBNr1GoecutPfBiTrSsBiZ99+cgIpr1hqacqvozv+BjuVmxSR1MTRfM/F3IQrPvgvSB4o3HBMG4JlR5ZlRSPnw/k5DsvRYf4IVSUOdccOx3rSypE5YnMgpMxLAzftyghZz8z7LSJ44ixPCkjqhN60MBS7FaUWZLJcsSc9da8qHZ0bddzhpPPlNNDPmhLZhn5xJw33Xgx2fqKZn/TXqp1y/HfbfE59gDLv143mRMoMu+A4qkYn989F0H7YnLzBzHBjFJf0dSCvLE0JzcXMqQdLAxSknRsJzYk3Lc7/3VRFAz68zLeIeluz89sWpoz9wAM2+sDwhHEgrPWmd8AcmEz30NLLh84hVREFUQJ2ptmO7sXtznrOJTYMV/4qGzpmLrAmiggRgXrwF7d8wUV+indD+fjRTqIEQxmee/xx29LmCbceCUXUPqALREma7HG3hAxgRNyTLp5pGVlwnYSASHid77KMhQNSIs46hAzTZ2Ee/iCpY64RTVdQqqoKoj2lYVFBfOv8L4reFrdmZdFXFoggWNv1V2NTD+vP/HhLT0cA1+mzDF3Bj+uc+PVH3WDFGXAtp9IQtw9VlhYxa5c4+dxWHM/D0sHI4zyx3V5ECnF/ncBAeI+P+vrPPMnq02ZbQ19g6rDR6ziJN9lSo7rwDs/1WRBQv26LDf9UK0nYhJOcX7mSi6CXrQSIoGg7BBAkbmA4+hN2VG4ohHtL9eVS9Ix02BXPwVmz/vYXlVWIA5sWFuXFhz7hy24FcinA5to0qPWmICSQ94akRl2KcJenBFU3l+9wrmgrN9NYR5akRd6y4EXrSsG0kf48jGbNw2wHL7nFlblyYN9mzJaoEj3wODayzINaZRLWupeI1Iut+HEZPCpGGRWj75aiKEzx01sSG/ei2L0GQl7PW9R4keV5pK6sZgp0fKy6tCgPQGoFLU9ARhY1Dlq/vCsr2u6rw8wOKEddXX97k0n8fHnC55IQm59oWwxWpIy/3ipRwbYuZ+CL7027fvoxyeZOLixuBnx8Mb2oJ9qWVr+8K2Dhk6Yi6a2+t0vQfL8Gf/hmv52FMNkgSmmPXfxhk/jsg3l682wSy8n+D35Tzzm34QWB4O3ZbXmBGDMz9ElZ9ZzmyAZkQf/BRMr3/liuokolwqVXYPKzc3BPQl3F96OoGw9vac6nA4LJEv/B8BgU+NcNjzML3e5zQH+ryOKc+V3lcXa75zrCDnh0XmnwpON6fhpR/2hPQHhH+fJohbuCrLwYI8IVZPu15Io4r/Pt+y4YBN0nS7MM7phmWJmQi/j4pBOPo9+fC2B5QdY3XgA1DoJKcBW/ainix4j0L0Mc/jm7/BiLWmXHjwupWQaJNcMk2JJaLg+uTb4P9tyAaThTkWUM1zciaF8FL5AqPwoTNMQLL64VPz/CYHnWx6z/0Wz66PcP39gXsHldGLTw0GJBWaPVdqHRO3EW4LPB/ei17ciMPouI87fMaDOc1GKZFCoXeM+72scC6RnesGTGh1Xdx8ocGA0atm4z53r6Aj27P8Id+S1phehQ+PcPjnHozuUKjBHd/BIZ3hxPv2XFz2LqtoCs+dVShAWTZVyHW5rzy0DoQmnIZP0Sw4fqwMGTO51ANJVJBMzjPHsD2kXnxxlzdKig9EQJsGFRuP2AZsM5xMgJNnjAYzl2vqoc3t3skjNCfUW7ttWwaVt7U5nFl09HXewUKdx6y3NprWV4vvKnNkPKEYavcut+yYUiJhUuKDoXZMY0+NBgXYl2dlCMD+5OADu+D781G7JjTWcNu2bh/tX0NvP5+xFQxVgTszn9FNrzHtVbPoOESETFC4BvMJduRxKyJ+pkdf4PZ8VlE1E2oSNjCDYCHrNwCdWflTlCBkmJnGbHwxHC2T3XTnMNBdpgmtPuwKCHMisGmIXhsyOID7+30SHq5+eysl2xDZzSjzpO+aW9ABlhZb1heD8+PuZSm/RkYty5LK+FBZ0Ro9uG8BsOyhFB3MlQGl0B42+V4u+4FtTmxxX0pNWBe9zuYfmnxnuUJRsnctQ5z+NGccKHYCGhiJnLpFvDibkO6D/1DB0gGFbfwkTzRtfWNyOKfZAdnFakodpaMur76lwcDHh10kxSdUWHveG61hslZNuqMUOe5+HY0zA6VsDWPqxtjjwQwEgoqef5HnckdO6OwKilc1+LRHsnF508W+uLdcNtlCKHK+duMQea/AV5d2gOvhN1/P9x9CcaEJlNkooVjBM69Bel680R97fkPeOKNqLWI565DxM2RqwgsuxPTdMVE/XJUJTahiDfvC7h/QFmWcBmje9JuXJ5Wl8x/OFA2DUN/xolYZ1zfnxXShEGY7OxXyheWJ6DRE6LGbUt6QlcE/rPP8sSwsrZBeGeHV8Vze4LJjGBvuQBz8E8ufFU0HFVj4N3PI/XdhRuqQS2Ze6/C3/s71CjiCWqyMgjEWpDLn4Zo6KypxT6wFDO8FTxFUSe2UUQMJF8JK+4FqdyVVC32qIVv7Q3405Dy3k6PC8IlQFnTHKgLtjw7CjftC0hbN36/tsUUiH17OFMWMfDeDo+z4i73zCsy+Q8MWG7aazmnXnh/p0f82BrPS+fxf4G7P1ToMOWhqz6BXPR3xcVVo+kB5D+6UQZCHyDXwkUEXfg5ZHHecOzwo/DwOlTGQEKxATGKioH5/wvp+mD+KY6g6ls4Yl3rFWBxXiK3CbNO4waafGFFvfCWNg8FejNKX0ZZUe/K+zJKb8bFsN/S5rGi3g3F4mGrzo+ALa5zY/HxcLbspJIZJXjgi2HHWIgCWt8FF36teNMxIZEGgjlvc/EVCxrGe8W6EGzwzI3oyAu5HRpXEbS8GqxBgrBbsepGB9aiL37NhVMrULXYY9b1oS4LtHhrDk/gokZhTVLoz8Bd/ZYnRyxPjih39Sv9GViTdHnklTz2uHHnyqg798lE7/5rZKzHBU3yyxEsAud/FSnxIBwrZvU3kdgs9wQF4Qc3ueIHY/DERwvrL/k2om5grmHDI5sUMbITnvlAQf1iqjbj20eVH/ZYDmWUr87xj+oRDwfwty9m2DXuMlIIEyS6o/CpGT6Jyt0LIxY+/VyGJl+4YZqZ/HBolqF9BN9fgGQGQ+cxd3ssgjbPwJt/rUtGUBNud6bHeSrZMskbTAs2dFLpuhSZ+8aJY+qWb8GjH3AbwyGV88wVTBxddxfSmktQDLZ+FtnxFWcFwyGgdReK+ElY24uY0mP+qsXeMqL8237LcABfnu0dVWyAF8aUb+wOOBhalxYfPjLdY2ZekkM5Rix8dmdAwuPkvW5DFX56GXbXPRMWPHtWjacgNQNiybBM8wyjG5a5sZPkia25Pj+MxRBLIVfcCtFUeGCLvetCzP4HUC8UTdywDgGazkEu2xieBxg/gF2/ApPZHUZkwLpcbcSATa3DW3F3SWetCskcvrjK1a3Scl8soy5NOMvsmFs0UN0R3LlMeO6Tge7fCHvvnxgqChBE6qBtDrQvhlijG4aFLTiHcbHPcF4794hk67ntogZGB7Cb/mduVzHI8i+DFTedmZ1YCSda6H8C3fXjXP1oKyz5+9zfKi4CFxoY038fduCR3PY8qha73rhQ56g9YshZkk1Dym0HAjYOKd1RoTsqbAzLNg0d/QCq7lxRgUS+5zZZZEaQn14FNu0Ms/EJUl2Y7qXY+k5EtMCkF5N9BI6GAOy6G0bzUpI6rsDO+jMIwnsbii4W53w9+m5I5xYSmGnXYeMLnN0IH4psMgVWMJvfCXZ0ov7EfsUF5aj3XHLDmHVTnOVIK/z2kOUnvZanRtzw681thje3uX73qRH4Sa/lt4dcjLsc20ZdWDZq3LknG93+C8j0oiJooglmrMCkZiLWuCSD6m/VUTFBGr33L/IC3cCKz2HxJ2bUCBMXJFBMZgx99ht5B4hizv2/qI1MPBgaJlKAxY5sI+j5Wa5+drfignLUG5gedWnEtx90SYH5KPD0iPKDfQG/PGjZm1ZW1wtvb3ezUksT7v+r64W9aeWXBy0/2Bfw9MiR6USBunP44s55lHS0l4wO98Cdf0Fg6tGupdC2BEMEwaDivCYVLfGxRf+n6N/iOtlPgIz0ogc3TVyDaZiPWfk119tnb0g4LCNQeOor6OCWifok5mCbL5qYmJEA92CqYFBk60cgM5irzzE4aOBi1/+8J6A3o7wiYbi0SUh5Lo/7iWG3oOBAxpmit7R5nNcgNBW9ZOBQBh4eUH7cGyACrb5b6bEs4XLOD2WUe/qVx4ctbb7wwS6PWaWdyxOGvf+/o9tvQRKtLgwqxk1UIKGHHZRpF/ktXsP/B6Fbnf+v83Zydd2SIfWb8K76CUTCxXvpAfTnXZAZCh1EcY6fATE+2v0G5IK81Z3pfoK7z0LSfUi4iHDiSTGCnf1xvPk3TjhrxyS2Ag8OWL6/z7pXbpjw64UL9Szwinrh+jaProgbc5ciULc27Ge9AY8POSfMCxcDWiBjnVP25x2GVzbkEh0mC+19zN0sdeKKOGvjYuK57KATeR2qYRQstQDx63PlfY/DeF9BXQl9Fqtg2tcVri3r3wDBQF7tEAG8BNKw+vjEzvLsqPLT3lxyfszAkjrh4pTrl6v1njPqxu9/6HdBl2w61KyY8MY2w1kna2w9RTgusQlbeXa1ZcIrTEo4HtzKTjejVu8d/W1KNY6d4xa7xulHKa+jxhlKTewpRE3sKURN7ClETewpRE3sKURN7ClETewpRE3sKURN7ClETewpRE3sKURN7ClETewpRE3sKURN7ClETewpRE3sKcSkpCUdHBsiyE+AL8W4RdPhEsQSiBgakgnisTK/X5nH6Ng4A4PDaLlfzBFBIuJWHFTAE0NL7MT9JsepxqSI/Z2tv+OpQxVeiC6Q2TZI+ukBt8SkBPFYlNe8ah1XXvTKistjVZU7732Q//ztfYyO5b2qKZ+YIbK4AX9BsuJCs8Wpbt636OivqzhdmRSxHzmwnS9u/BlDmfIvRLd944zds5/g+eGSAhhjWLpoHl/55Afomlb+NzL29PTymRv/hc1btmNtiQdHwJuVIHZJO6a5vJWo92N8fsX1nNs6r3jTGUNlu3acrGyZw8UdZxcXF2Cao/jzk0h96d+ltNay4/nd3H7nvaQzpd8okM5kuP3Oe9nx/O7SQgOS8PHnJysKDXBxx9msbJlTXHxGMSliGzG8fvZ5TE80F28qwJ+fxEyPl106MjQ8wj33b+CpbTuKNwHw1LYd3HP/BoaGy7zo1BNMdxx/fuV+eHpdM6+ffR7mGN96dLoxKd9OgJn1rVw7cxV+iUXhWSTuEV2WQpKlW7eq8uKeHn59130cHhwq2HZ4cIhf33UfL+458nUYWSTpu+PHy1+DLx7XzlzFzETrGb8wYVLEBoganwunLWJp84ziTQV43XX4cxNlV9yPjI7xyMYneeixvJ8mBh56bDOPbHySkdEyfoEv+HMTeN2lf686y9LmGVzYsYioV/qBO5OYNLEFaI83cs2MlSQj4dv6SmGEyCuakMbyrxXe23OAu9Y/zK59+wHYtW8/d61/mL095X8zQxojRF7RVPgKpiKSkTjXzFhJe7zxjG/VTKbYhK37nOZZrGtfWLypAJOKEj0nVbbvTmcybNy8lfUPbmRsfJz1D25k4+atZR03PCF6TgqTquyUrWtfyDnNs4iaM79VM9liA7TEklzWtZSuuqbiTTkE/LMbMB3lF2L39fWz/sGN/Oq361n/4Eb6+sr8fiVgOmL4ZzdUXGPbVdfEZV1Lz+ggSjGTLrYnhkWNXVzetTR8+UxpJOoRW9tWLqCGVWXTlme4+Se/YtOWZ7BlKqpCbG0bEi3vlAnC5V1LWdTYhXeGe+D5nJRv2hit4/z2BSxpqvyeT68rTmRJQ3HxBMPDo+zbf5Dh4SNfDpMlsqQBr6uCjwAsaerm/PYFNEYrO29nGidFbEFY0NjJpZ1LiHvlHTGMELu4vaxnTjgcK4sX7l/BKYt7ES7pXML8xs6KluZM5KSITeisrW6dy+qjhCMl5hFd2+pe+XQMqFWi61qRWHnzDbC6dR7nts4lNkWcsnxOmtgAs5PtrJu2kNZKTpFAZHkKr62yJ12M1xYlsjxV0SlrjSVZN20hs5Plf7jlTOakii3Aua3zWNN2VkXHSDwhemF7ReEKEIhe2I6UGboROopr2uZzXttZVR/2TKP8HZ8k2uINrOtYxOxk+ZksRPCmx/EWlHfW8vEWNOBNj5d8ZXSW2ck21nUcxaqc4Zx0sQlnxc5tnUedX95US9QjurIJOcrriyUR1qsw1Krzo5zbOu+Mn9U6Gi+L2HVelEs6zmZ+sgNTrjUKmOYI/rIK/bCAvyyFaY6UrWNEmJ/s4JKOs6nzyj9cU4GXRWyAhakuzp+2gMZI+R8hk5iHvyCJaS8dWTPtMfwFyYoeeGMkwfnTFrAw1VW8acrxsontieHSziUsTnXhV/hNLJOK4C9NHZk/FjX4S1OYVPlxu288Fqe6uLRzSUWHcKrwst6BrromXtW1nOZo7nWOxUjE4M+qw5uZyKUvKXgzE/iz6pDs7zCXoDlaz6u6lleOy08hyt+pk8Sa9rNY2TK74syTaYjgL0wija6ONPr4C5OYhvKtOmp8VrbMZk17db9mNxV42cVO+nGum3UurRM/x1ACT/C76/Dn1junbG49fndd2SlRwgDKdbPOJelXjpNPJV52sQEWNnZxRdcyIhVatyR8vHn1+Esa8ebVI4nydaPG54quZSxsrDll+ZwSYvtiuG7WarorJSgKeF11RNe04HXVlR1qAXQnmrlu1mr8mlNWwClzN9piDbx13rqKCwIkajCNEaTYM89DRHjrvHW0xaqLvk0lyt+1l4GLOxaz6iVGuVa1zOHijsXFxTVONbGjxudDi6+smH5cCV88PrT4yoqe/VTmlBIbYE5yGq+bfW5xcVW8bva5zElOKy6uEXLKiQ3wljkXMK0u/EW7KplWl+Itcy4oLq6RxykpdlM0wdvnrq0YRs3HNx5vn7uWpmj5OHuNU1RsTwwXdSzmnOZZxZtKck7zLC7qWFyLfx+FU/buJCN1XD97DQ2RyhmgDWG95FHq1TiFxfbFcHaqm0s6zy47521EuKTzbM5OddcCKFVwSt+hxkgdr+pazoxEa/EmAGYkWnlV13Iaa626Kk5psY0Ic5PtXDl9ObGifPOYF+HK6cuZm2wv2/JrFHJKi0240vKVbfNZkipcTbIk1c0r2+ZXXiFao4BTXmwBZtS3cFnXkomhVVM0wWVdS5hR31JpPqRGEae82IRLdla2uNUkRoTVrfNY2TK38lKiGkdwWogN0FGXYt20hbyybT7rpi2k4xgjbDUm6dVYk0Xf+BD7Rw7TXtdYMW+tRmlOK7EVxapiRKbcCswTwWkldo2XxmnTZ9d46dTEnkL8f2wY6vuKQj1tAAAAAElFTkSuQmCC;" parent="2" vertex="1">
                    <mxGeometry x="394" y="22" width="123" height="121" as="geometry"/>
                </mxCell>
                <mxCell id="42" value="Lambda@edge" style="sketch=0;points=[[0,0,0],[0.25,0,0],[0.5,0,0],[0.75,0,0],[1,0,0],[0,1,0],[0.25,1,0],[0.5,1,0],[0.75,1,0],[1,1,0],[0,0.25,0],[0,0.5,0],[0,0.75,0],[1,0.25,0],[1,0.5,0],[1,0.75,0]];outlineConnect=0;fontColor=#232F3E;gradientColor=#F78E04;gradientDirection=north;fillColor=#D05C17;strokeColor=#ffffff;dashed=0;verticalLabelPosition=bottom;verticalAlign=top;align=center;html=1;fontSize=12;fontStyle=0;aspect=fixed;shape=mxgraph.aws4.resourceIcon;resIcon=mxgraph.aws4.lambda;" vertex="1" parent="2">
                    <mxGeometry x="197" y="189" width="78" height="78" as="geometry"/>
                </mxCell>
                <mxCell id="43" style="edgeStyle=orthogonalEdgeStyle;html=1;entryX=0;entryY=0.5;entryDx=0;entryDy=0;entryPerimeter=0;" edge="1" parent="2" source="24" target="42">
                    <mxGeometry relative="1" as="geometry">
                        <Array as="points">
                            <mxPoint x="118" y="228"/>
                        </Array>
                    </mxGeometry>
                </mxCell>
                <mxCell id="44" style="edgeStyle=none;html=1;entryX=0;entryY=0.5;entryDx=0;entryDy=0;entryPerimeter=0;" edge="1" parent="2" source="42" target="20">
                    <mxGeometry relative="1" as="geometry"/>
                </mxCell>
            </root>
        </mxGraphModel>
    </diagram>
</mxfile>